<mxfile host="app.diagrams.net" modified="2024-04-18T09:11:56.262Z" agent="Mozilla/5.0 (Macintosh; Intel Mac OS X 10.15; rv:124.0) Gecko/20100101 Firefox/124.0" etag="Zqp95jQ4fdywICuCK4kG" version="23.1.6" type="github">
  <diagram name="Page-1" id="WSNy4wVCY7JSL-_r6ql8">
    <mxGraphModel dx="1590" dy="1016" grid="1" gridSize="10" guides="1" tooltips="1" connect="1" arrows="1" fold="1" page="1" pageScale="1" pageWidth="827" pageHeight="1169" math="0" shadow="0">
      <root>
        <mxCell id="0" />
        <mxCell id="1" parent="0" />
        <mxCell id="-vyC8QUPcTlA4Ckdc9Ip-1" value="VLAN 10 - &quot;Server&quot; (192.168.178.0/24)" style="html=1;fillColor=#CCCCCC;strokeColor=#6881B3;gradientColor=none;gradientDirection=north;strokeWidth=2;shape=mxgraph.networks.bus;gradientColor=none;gradientDirection=north;fontColor=#ffffff;perimeter=backbonePerimeter;backboneSize=20;" vertex="1" parent="1">
          <mxGeometry x="180" y="200" width="720" height="20" as="geometry" />
        </mxCell>
        <mxCell id="-vyC8QUPcTlA4Ckdc9Ip-6" value="" style="strokeColor=#6881B3;edgeStyle=none;rounded=0;endArrow=none;html=1;strokeWidth=2;" edge="1" target="-vyC8QUPcTlA4Ckdc9Ip-1" parent="1">
          <mxGeometry relative="1" as="geometry">
            <mxPoint x="230" y="280" as="sourcePoint" />
          </mxGeometry>
        </mxCell>
        <mxCell id="-vyC8QUPcTlA4Ckdc9Ip-7" value="192.168.178.15&lt;br&gt;&lt;br&gt;:80&lt;br&gt;:443" style="strokeColor=#6881B3;edgeStyle=none;rounded=0;endArrow=none;html=1;strokeWidth=2;exitX=0.5;exitY=0;exitDx=0;exitDy=0;" edge="1" target="-vyC8QUPcTlA4Ckdc9Ip-1" parent="1" source="-vyC8QUPcTlA4Ckdc9Ip-29">
          <mxGeometry x="-0.006" relative="1" as="geometry">
            <mxPoint x="290" y="280" as="sourcePoint" />
            <mxPoint as="offset" />
          </mxGeometry>
        </mxCell>
        <mxCell id="-vyC8QUPcTlA4Ckdc9Ip-8" value="" style="strokeColor=#6881B3;edgeStyle=none;rounded=0;endArrow=none;html=1;strokeWidth=2;" edge="1" target="-vyC8QUPcTlA4Ckdc9Ip-1" parent="1">
          <mxGeometry relative="1" as="geometry">
            <mxPoint x="350" y="280" as="sourcePoint" />
          </mxGeometry>
        </mxCell>
        <mxCell id="-vyC8QUPcTlA4Ckdc9Ip-9" value="" style="strokeColor=#6881B3;edgeStyle=none;rounded=0;endArrow=none;html=1;strokeWidth=2;" edge="1" target="-vyC8QUPcTlA4Ckdc9Ip-1" parent="1">
          <mxGeometry relative="1" as="geometry">
            <mxPoint x="410" y="280" as="sourcePoint" />
          </mxGeometry>
        </mxCell>
        <mxCell id="-vyC8QUPcTlA4Ckdc9Ip-10" value="Home Automation" style="swimlane;startSize=23;" vertex="1" parent="1">
          <mxGeometry x="1020" y="550" width="200" height="200" as="geometry" />
        </mxCell>
        <mxCell id="-vyC8QUPcTlA4Ckdc9Ip-11" value="Netxcloud" style="swimlane;startSize=23;" vertex="1" parent="1">
          <mxGeometry x="970" y="260" width="200" height="200" as="geometry" />
        </mxCell>
        <mxCell id="-vyC8QUPcTlA4Ckdc9Ip-12" value="Reverse Proxy" style="swimlane;startSize=23;" vertex="1" parent="1">
          <mxGeometry x="750" y="510" width="200" height="200" as="geometry" />
        </mxCell>
        <mxCell id="-vyC8QUPcTlA4Ckdc9Ip-15" value="bw-docker (?)" style="html=1;fillColor=#CCCCCC;strokeColor=#6881B3;gradientColor=none;gradientDirection=north;strokeWidth=2;shape=mxgraph.networks.bus;gradientColor=none;gradientDirection=north;fontColor=#ffffff;perimeter=backbonePerimeter;backboneSize=20;" vertex="1" parent="1">
          <mxGeometry x="30" y="390" width="160" height="20" as="geometry" />
        </mxCell>
        <mxCell id="-vyC8QUPcTlA4Ckdc9Ip-16" value="" style="strokeColor=#6881B3;edgeStyle=none;rounded=0;endArrow=none;html=1;strokeWidth=2;exitX=0.5;exitY=0;exitDx=0;exitDy=0;" edge="1" parent="1" target="-vyC8QUPcTlA4Ckdc9Ip-15" source="-vyC8QUPcTlA4Ckdc9Ip-20">
          <mxGeometry relative="1" as="geometry">
            <mxPoint x="-30" y="470" as="sourcePoint" />
          </mxGeometry>
        </mxCell>
        <mxCell id="-vyC8QUPcTlA4Ckdc9Ip-18" value="" style="strokeColor=#6881B3;edgeStyle=none;rounded=0;endArrow=none;html=1;strokeWidth=2;exitX=0.5;exitY=0;exitDx=0;exitDy=0;" edge="1" parent="1" target="-vyC8QUPcTlA4Ckdc9Ip-15" source="-vyC8QUPcTlA4Ckdc9Ip-21">
          <mxGeometry relative="1" as="geometry">
            <mxPoint x="90" y="470" as="sourcePoint" />
          </mxGeometry>
        </mxCell>
        <mxCell id="-vyC8QUPcTlA4Ckdc9Ip-20" value="bw-scheduler" style="rounded=0;whiteSpace=wrap;html=1;" vertex="1" parent="1">
          <mxGeometry x="120" y="470" width="90" height="40" as="geometry" />
        </mxCell>
        <mxCell id="-vyC8QUPcTlA4Ckdc9Ip-21" value="bw-docker-proxy" style="rounded=0;whiteSpace=wrap;html=1;" vertex="1" parent="1">
          <mxGeometry x="20" y="470" width="90" height="40" as="geometry" />
        </mxCell>
        <mxCell id="-vyC8QUPcTlA4Ckdc9Ip-23" value="proxy" style="html=1;fillColor=#CCCCCC;strokeColor=#6881B3;gradientColor=none;gradientDirection=north;strokeWidth=2;shape=mxgraph.networks.bus;gradientColor=none;gradientDirection=north;fontColor=#ffffff;perimeter=backbonePerimeter;backboneSize=20;" vertex="1" parent="1">
          <mxGeometry x="230" y="390" width="260" height="20" as="geometry" />
        </mxCell>
        <mxCell id="-vyC8QUPcTlA4Ckdc9Ip-24" value="" style="strokeColor=#6881B3;edgeStyle=none;rounded=0;endArrow=none;html=1;strokeWidth=2;exitX=0.75;exitY=0;exitDx=0;exitDy=0;" edge="1" parent="1" target="-vyC8QUPcTlA4Ckdc9Ip-23" source="-vyC8QUPcTlA4Ckdc9Ip-20">
          <mxGeometry relative="1" as="geometry">
            <mxPoint x="280" y="470" as="sourcePoint" />
            <Array as="points">
              <mxPoint x="188" y="440" />
              <mxPoint x="250" y="440" />
            </Array>
          </mxGeometry>
        </mxCell>
        <mxCell id="-vyC8QUPcTlA4Ckdc9Ip-25" value="" style="strokeColor=#6881B3;edgeStyle=none;rounded=0;endArrow=none;html=1;strokeWidth=2;exitX=0.5;exitY=0;exitDx=0;exitDy=0;" edge="1" parent="1" target="-vyC8QUPcTlA4Ckdc9Ip-23" source="-vyC8QUPcTlA4Ckdc9Ip-28">
          <mxGeometry relative="1" as="geometry">
            <mxPoint x="340" y="470" as="sourcePoint" />
          </mxGeometry>
        </mxCell>
        <mxCell id="-vyC8QUPcTlA4Ckdc9Ip-26" value="" style="strokeColor=#6881B3;edgeStyle=none;rounded=0;endArrow=none;html=1;strokeWidth=2;exitX=0.5;exitY=0;exitDx=0;exitDy=0;" edge="1" parent="1" target="-vyC8QUPcTlA4Ckdc9Ip-23" source="-vyC8QUPcTlA4Ckdc9Ip-29">
          <mxGeometry relative="1" as="geometry">
            <mxPoint x="400" y="470" as="sourcePoint" />
          </mxGeometry>
        </mxCell>
        <mxCell id="-vyC8QUPcTlA4Ckdc9Ip-27" value="" style="strokeColor=#6881B3;edgeStyle=none;rounded=0;endArrow=none;html=1;strokeWidth=2;" edge="1" parent="1" target="-vyC8QUPcTlA4Ckdc9Ip-23">
          <mxGeometry relative="1" as="geometry">
            <mxPoint x="460" y="470" as="sourcePoint" />
          </mxGeometry>
        </mxCell>
        <mxCell id="-vyC8QUPcTlA4Ckdc9Ip-28" value="nc_nginx" style="rounded=0;whiteSpace=wrap;html=1;" vertex="1" parent="1">
          <mxGeometry x="269" y="470" width="90" height="40" as="geometry" />
        </mxCell>
        <mxCell id="-vyC8QUPcTlA4Ckdc9Ip-29" value="proxy" style="rounded=0;whiteSpace=wrap;html=1;" vertex="1" parent="1">
          <mxGeometry x="245" y="330" width="90" height="40" as="geometry" />
        </mxCell>
        <mxCell id="-vyC8QUPcTlA4Ckdc9Ip-32" value="Internal" style="html=1;fillColor=#CCCCCC;strokeColor=#6881B3;gradientColor=none;gradientDirection=north;strokeWidth=2;shape=mxgraph.networks.bus;gradientColor=none;gradientDirection=north;fontColor=#ffffff;perimeter=backbonePerimeter;backboneSize=20;points=[[0.5,1,0,0,0],[0.91,1,0,0,1]];" vertex="1" parent="1">
          <mxGeometry x="171" y="550" width="300" height="20" as="geometry" />
        </mxCell>
        <mxCell id="-vyC8QUPcTlA4Ckdc9Ip-33" value="" style="strokeColor=#6881B3;edgeStyle=none;rounded=0;endArrow=none;html=1;strokeWidth=2;exitX=0.5;exitY=0;exitDx=0;exitDy=0;" edge="1" parent="1" target="-vyC8QUPcTlA4Ckdc9Ip-32" source="-vyC8QUPcTlA4Ckdc9Ip-37">
          <mxGeometry relative="1" as="geometry">
            <mxPoint x="221" y="630" as="sourcePoint" />
          </mxGeometry>
        </mxCell>
        <mxCell id="-vyC8QUPcTlA4Ckdc9Ip-34" value="" style="strokeColor=#6881B3;edgeStyle=none;rounded=0;endArrow=none;html=1;strokeWidth=2;exitX=0.5;exitY=0;exitDx=0;exitDy=0;" edge="1" parent="1" target="-vyC8QUPcTlA4Ckdc9Ip-32" source="-vyC8QUPcTlA4Ckdc9Ip-38">
          <mxGeometry x="-0.006" relative="1" as="geometry">
            <mxPoint x="281" y="680" as="sourcePoint" />
            <mxPoint as="offset" />
          </mxGeometry>
        </mxCell>
        <mxCell id="-vyC8QUPcTlA4Ckdc9Ip-35" value="" style="strokeColor=#6881B3;edgeStyle=none;rounded=0;endArrow=none;html=1;strokeWidth=2;exitX=0.5;exitY=0;exitDx=0;exitDy=0;" edge="1" parent="1" target="-vyC8QUPcTlA4Ckdc9Ip-32" source="-vyC8QUPcTlA4Ckdc9Ip-39">
          <mxGeometry relative="1" as="geometry">
            <mxPoint x="341" y="630" as="sourcePoint" />
          </mxGeometry>
        </mxCell>
        <mxCell id="-vyC8QUPcTlA4Ckdc9Ip-36" value="" style="strokeColor=#6881B3;edgeStyle=none;rounded=0;endArrow=none;html=1;strokeWidth=2;exitX=0.5;exitY=0;exitDx=0;exitDy=0;" edge="1" parent="1" target="-vyC8QUPcTlA4Ckdc9Ip-32" source="-vyC8QUPcTlA4Ckdc9Ip-40">
          <mxGeometry relative="1" as="geometry">
            <mxPoint x="401" y="630" as="sourcePoint" />
          </mxGeometry>
        </mxCell>
        <mxCell id="-vyC8QUPcTlA4Ckdc9Ip-37" value="mariadb" style="rounded=0;whiteSpace=wrap;html=1;" vertex="1" parent="1">
          <mxGeometry x="151" y="600" width="90" height="40" as="geometry" />
        </mxCell>
        <mxCell id="-vyC8QUPcTlA4Ckdc9Ip-38" value="nextcloud" style="rounded=0;whiteSpace=wrap;html=1;" vertex="1" parent="1">
          <mxGeometry x="211" y="650" width="90" height="40" as="geometry" />
        </mxCell>
        <mxCell id="-vyC8QUPcTlA4Ckdc9Ip-39" value="nc_cron" style="rounded=0;whiteSpace=wrap;html=1;" vertex="1" parent="1">
          <mxGeometry x="271" y="600" width="90" height="40" as="geometry" />
        </mxCell>
        <mxCell id="-vyC8QUPcTlA4Ckdc9Ip-40" value="redis" style="rounded=0;whiteSpace=wrap;html=1;" vertex="1" parent="1">
          <mxGeometry x="326" y="650" width="90" height="40" as="geometry" />
        </mxCell>
        <mxCell id="-vyC8QUPcTlA4Ckdc9Ip-41" value="logrotate" style="rounded=0;whiteSpace=wrap;html=1;" vertex="1" parent="1">
          <mxGeometry x="381" y="600" width="90" height="40" as="geometry" />
        </mxCell>
        <mxCell id="-vyC8QUPcTlA4Ckdc9Ip-43" value="" style="strokeColor=#6881B3;edgeStyle=none;rounded=0;endArrow=none;html=1;strokeWidth=2;exitX=0.5;exitY=0;exitDx=0;exitDy=0;entryX=0.851;entryY=1.071;entryDx=0;entryDy=0;entryPerimeter=0;" edge="1" parent="1" source="-vyC8QUPcTlA4Ckdc9Ip-41" target="-vyC8QUPcTlA4Ckdc9Ip-32">
          <mxGeometry relative="1" as="geometry">
            <mxPoint x="410" y="600" as="sourcePoint" />
            <mxPoint x="425" y="570" as="targetPoint" />
          </mxGeometry>
        </mxCell>
        <mxCell id="-vyC8QUPcTlA4Ckdc9Ip-44" value="" style="strokeColor=#6881B3;edgeStyle=none;rounded=0;endArrow=none;html=1;strokeWidth=2;exitX=0.5;exitY=1;exitDx=0;exitDy=0;entryX=0.477;entryY=-0.133;entryDx=0;entryDy=0;entryPerimeter=0;" edge="1" parent="1" source="-vyC8QUPcTlA4Ckdc9Ip-28" target="-vyC8QUPcTlA4Ckdc9Ip-32">
          <mxGeometry relative="1" as="geometry">
            <mxPoint x="160" y="881" as="sourcePoint" />
            <mxPoint x="160" y="800" as="targetPoint" />
          </mxGeometry>
        </mxCell>
      </root>
    </mxGraphModel>
  </diagram>
</mxfile>
